<svg width="21" height="21" viewBox="0 0 21 21" fill="none" xmlns="http://www.w3.org/2000/svg">
<g clip-path="url(#clip0_545_22528)">
<path d="M18.7896 12.1685C18.7881 13.4941 18.2609 14.765 17.3235 15.7024C16.3861 16.6398 15.1152 17.167 13.7896 17.1685H6.91455C6.74879 17.1685 6.58982 17.1026 6.47261 16.9854C6.3554 16.8682 6.28955 16.7092 6.28955 16.5435C6.28955 16.3777 6.3554 16.2187 6.47261 16.1015C6.58982 15.9843 6.74879 15.9185 6.91455 15.9185H13.7896C14.7841 15.9185 15.7379 15.5234 16.4412 14.8201C17.1445 14.1169 17.5396 13.163 17.5396 12.1685C17.5396 11.1739 17.1445 10.2201 16.4412 9.51681C15.7379 8.81355 14.7841 8.41846 13.7896 8.41846H7.53955V11.5435C7.53965 11.6671 7.50305 11.7881 7.43438 11.891C7.36571 11.9938 7.26806 12.074 7.1538 12.1214C7.03953 12.1687 6.91379 12.1811 6.79249 12.1569C6.67119 12.1328 6.55978 12.0732 6.47237 11.9857L2.72237 8.23565C2.66426 8.1776 2.61816 8.10867 2.5867 8.0328C2.55525 7.95693 2.53906 7.8756 2.53906 7.79346C2.53906 7.71133 2.55525 7.63 2.5867 7.55412C2.61816 7.47825 2.66426 7.40932 2.72237 7.35127L6.47237 3.60127C6.55978 3.51377 6.67119 3.45416 6.79249 3.43001C6.91379 3.40585 7.03953 3.41823 7.1538 3.46557C7.26806 3.51292 7.36571 3.5931 7.43438 3.69597C7.50305 3.79884 7.53965 3.91978 7.53955 4.04346V7.16846H13.7896C15.1152 7.16991 16.3861 7.69716 17.3235 8.63453C18.2609 9.5719 18.7881 10.8428 18.7896 12.1685Z" fill="white"/>
</g>
<defs>
<clipPath id="clip0_545_22528">
<rect width="20" height="20" fill="white" transform="translate(0.664062 0.918945)"/>
</clipPath>
</defs>
</svg>
