<svg width="46" height="61" viewBox="0 0 46 61" fill="none" xmlns="http://www.w3.org/2000/svg">
<path d="M41.2867 35.809C39.7541 33.7141 37.8162 31.9094 35.5245 30.4412C38.1758 26.2159 45.8391 13.0813 43.7601 5.61204C43.1558 3.43899 41.8323 1.86293 39.8264 0.928723C37.8719 0.0183994 35.8392 0.0487918 33.9491 1.01918C30.4504 2.8145 27.2845 7.92186 24.5391 16.1987C24.0195 17.7639 23.5202 19.4268 23.052 21.1548C22.5766 19.429 22.0693 17.7632 21.5404 16.1908C18.7566 7.9139 15.5646 2.80871 12.0536 1.01628C10.1309 0.0364901 8.15324 0.00682133 6.17267 0.929447C4.1675 1.86437 2.84398 3.43971 2.23903 5.61277C0.161492 13.0792 7.82109 26.2123 10.471 30.4361C8.17784 31.9043 6.23924 33.7091 4.70732 35.804C1.85261 39.7072 0.505939 44.5606 1.0132 49.1202C1.78025 56.0127 6.47297 60.6432 12.6904 60.6432L13.3388 60.6338L13.3366 60.6295C16.8563 60.5144 20.1011 59.777 22.9898 58.4347C26.003 59.8357 29.4055 60.5781 33.1054 60.641L33.3188 60.6425C39.5312 60.6425 44.2189 56.0171 44.9852 49.1332C45.4924 44.5722 44.1443 39.7159 41.286 35.8098L41.2867 35.809ZM9.04258 3.46938C9.55997 3.46938 10.0716 3.60325 10.5955 3.87027C13.2924 5.24661 16.0234 9.85106 18.4939 17.185C19.7646 20.9587 20.6554 24.5841 21.1076 26.5784C20.5881 26.6371 20.0772 26.7181 19.5844 26.8209C17.3375 27.2869 15.218 27.9823 13.2801 28.8883C9.55491 23.0088 3.81871 11.8881 5.32747 6.46954C5.67481 5.22345 6.39338 4.36089 7.52658 3.83337C8.04904 3.59023 8.54906 3.46866 9.04258 3.46866V3.46938ZM38.4732 3.83409C39.6057 4.36161 40.325 5.22345 40.6724 6.47027C42.1811 11.891 36.442 23.0138 32.7161 28.894C30.7753 27.9859 28.6514 27.2883 26.3981 26.8216C25.94 26.7261 25.4733 26.6494 25.0065 26.5922C25.6802 23.5327 29.5907 6.85741 35.4116 3.87099C36.4312 3.34781 37.4037 3.33623 38.4725 3.83409H38.4732ZM17.9917 45.9999C18.2421 45.8812 18.5004 45.8212 18.7595 45.8212C19.8681 45.8212 20.8507 46.9088 21.3385 47.5571C21.7271 48.0738 22.345 48.3821 22.9912 48.3821C23.6374 48.3821 24.2561 48.0731 24.644 47.5564C25.2953 46.6909 26.5942 45.337 27.9908 45.9992C28.7151 46.3414 28.9554 47.1027 28.7064 48.2598C28.3092 50.1014 26.5992 52.7861 22.9905 54.8455C19.3832 52.7861 17.6733 50.1007 17.276 48.2598C17.0271 47.1027 17.2673 46.3422 17.9917 45.9992V45.9999ZM31.839 48.9356C32.4107 46.2872 31.4845 44.1062 29.3613 43.101C27.2375 42.0974 24.9291 42.635 22.9912 44.578C21.0526 42.6365 18.745 42.0974 16.6211 43.1018C14.498 44.1062 13.5718 46.2879 14.1434 48.9364C14.7035 51.5349 16.6928 54.284 19.5041 56.3724C17.4461 57.0367 15.2014 57.3949 12.8214 57.4361H12.6803C7.13292 57.4368 4.64509 52.7651 4.19934 48.7641C3.78036 44.9926 4.90849 40.9584 7.29502 37.6955C10.1432 33.801 14.6181 31.1257 20.2357 29.9592C21.1438 29.7711 22.0672 29.6748 23.0028 29.6748H23.0144L23.0694 29.6763C23.9667 29.6814 24.8676 29.7769 25.7468 29.9585C31.3679 31.1257 35.8472 33.8031 38.6997 37.702C41.0899 40.9685 42.2195 45.0049 41.7998 48.7772C41.0798 55.2522 36.7112 57.4795 33.1596 57.4347C30.7804 57.3941 28.5349 57.0374 26.4769 56.3724C29.289 54.284 31.2782 51.5349 31.8383 48.9349L31.839 48.9356Z" fill="#DE7084"/>
</svg>
