<svg width="64" height="64" viewBox="0 0 64 64" fill="none" xmlns="http://www.w3.org/2000/svg">
<path d="M39.8956 48.7873C40.2783 46.3183 40.1877 43.771 39.6272 41.2119C44.3076 40.1407 58.4631 36.4167 62.1318 29.9179C63.1996 28.0277 63.3715 26.0541 62.6421 24.053C61.9314 22.1032 60.5272 20.7404 58.5803 20.1144C54.977 18.955 49.346 20.2764 41.844 24.0412C40.4251 24.7529 38.9534 25.5449 37.4586 26.4024C38.3097 24.9041 39.0982 23.4251 39.8084 21.9948C43.5471 14.4667 44.8494 8.81945 43.6796 5.20978C43.0379 3.23429 41.712 1.86805 39.736 1.14798C37.7349 0.419549 35.7619 0.590946 33.8711 1.65823C27.3753 5.32602 23.6499 19.478 22.5787 24.1565C20.0186 23.595 17.4708 23.5039 15.0023 23.8871C10.4026 24.6007 6.18273 26.9875 3.42463 30.4361C-0.744537 35.6494 -0.70218 41.995 3.52954 46.2267L3.97724 46.6616L3.97871 46.6572C6.45263 48.9745 9.16296 50.681 12.0427 51.7336C13.14 54.7379 14.9505 57.5591 17.4259 60.1202L17.5703 60.2664C21.7985 64.4947 28.1372 64.5371 33.3441 60.3733C36.7937 57.6142 39.1815 53.3914 39.8946 48.7873H39.8956ZM39.9606 4.83005C40.3128 5.1822 40.5699 5.62153 40.7447 6.15985C41.6436 8.93224 40.3684 13.9249 37.0582 20.598C35.3546 24.0314 33.4934 27.1052 32.4438 28.7704C32.0503 28.4566 31.6474 28.1641 31.2421 27.8986C29.3956 26.6865 27.4797 25.7173 25.5441 25.0149C27.0103 18.4777 30.6752 7.00452 35.39 4.34344C36.4746 3.73173 37.5507 3.63372 38.6811 4.04596C39.2021 4.23607 39.6252 4.49366 39.9611 4.82956L39.9606 4.83005ZM59.7436 25.1095C60.1553 26.2393 60.0583 27.3155 59.4461 28.4005C56.7836 33.1169 45.3069 36.7812 38.7687 38.2474C38.0659 36.3084 37.0951 34.388 35.8791 32.5367C35.6324 32.1599 35.3669 31.79 35.0881 31.4334C37.629 29.8096 51.6402 21.1216 57.6346 23.0508C58.6847 23.3886 59.3545 24.0427 59.7431 25.109L59.7436 25.1095ZM17.1043 39.8683C17.3555 39.9579 17.5722 40.0929 17.7485 40.2692C18.5031 41.0237 18.4317 42.4328 18.3223 43.2061C18.2351 43.8222 18.4459 44.4527 18.8858 44.8925C19.3256 45.3323 19.957 45.5431 20.5726 45.4554C21.605 45.3096 23.4105 45.2722 23.9104 46.6734C24.1705 47.3994 23.8159 48.081 22.8589 48.6991C21.3351 49.6822 18.344 50.3456 14.4861 49.2912C13.4326 45.4342 14.0965 42.4427 15.0791 40.9193C15.6972 39.9624 16.3784 39.6082 17.1048 39.8678L17.1043 39.8683ZM24.531 51.2913C26.7227 49.8777 27.5767 47.7629 26.8158 45.6337C26.0534 43.505 24.1163 42.2999 21.4749 42.3033C21.4769 39.6624 20.2732 37.7249 18.144 36.9629C16.0154 36.2015 13.9 37.056 12.4865 39.2477C11.099 41.3976 10.5819 44.6226 11.0739 47.9574C9.22107 47.0088 7.44949 45.7248 5.80152 44.133L5.70548 44.037C1.92935 40.2618 3.41576 35.3888 5.83551 32.3623C8.11734 29.5101 11.631 27.5322 15.4761 26.9357C20.0653 26.2236 24.9319 27.4485 29.5493 30.4779C30.2954 30.968 30.9894 31.5309 31.6262 32.1678L31.6341 32.1757L31.6706 32.2141C32.2778 32.8282 32.826 33.5064 33.3008 34.2285C36.3322 38.8488 37.5586 43.7198 36.8464 48.315C36.25 52.165 34.2715 55.6811 31.4184 57.9629C26.5213 61.8799 22.032 60.4226 19.6452 57.9747C18.0534 56.3278 16.7679 54.5567 15.8198 52.7033C19.1552 53.1958 22.3802 52.6787 24.531 51.2903L24.531 51.2913Z" fill="#4B9CAE" fill-opacity="0.3"/>
</svg>
