<svg width="66" height="59" viewBox="0 0 66 59" fill="none" xmlns="http://www.w3.org/2000/svg">
<path d="M36.8964 48.248C37.9051 45.9622 38.4769 43.4782 38.5978 40.8613C43.396 41.0379 58.0329 41.1046 63.2587 35.7768C64.7793 34.2273 65.4562 32.3655 65.2695 30.2438C65.0877 28.1764 64.0841 26.4966 62.3655 25.388C59.1851 23.3356 53.404 23.1546 45.1832 24.8494C43.6284 25.1696 42.0019 25.5537 40.3361 25.9951C41.546 24.7682 42.6904 23.5436 43.7466 22.3459C49.3064 16.0419 52.0258 10.9242 51.8302 7.13474C51.7216 5.06047 50.7945 3.39762 49.0723 2.19067C47.3279 0.969133 45.3777 0.624032 43.2751 1.16558C36.0513 3.02715 28.7901 15.7327 26.5445 19.9745C24.2169 18.7696 21.7795 18.0221 19.296 17.7534C14.6683 17.2522 9.97451 18.4655 6.41782 21.0827C1.04141 25.0393 -0.560042 31.1797 2.43223 36.3624L2.75212 36.8984L2.75469 36.8945C4.54455 39.7731 6.72083 42.123 9.23005 43.885C9.51241 47.071 10.531 50.2646 12.2592 53.3791L12.3608 53.5578C15.3506 58.7363 21.4624 60.4178 27.5695 57.7436C31.6157 55.9713 35.015 52.5104 36.8955 48.2478L36.8964 48.248ZM48.3362 5.8054C48.5852 6.2367 48.7198 6.72759 48.7494 7.29283C48.9001 10.2034 46.3762 14.6959 41.4516 20.2849C38.9174 23.1603 36.3241 25.6477 34.8793 26.9845C34.5804 26.5796 34.267 26.1927 33.9441 25.8314C32.4743 24.1827 30.8746 22.7506 29.1867 21.5712C32.2949 15.6363 38.8044 5.50252 44.0473 4.15242C45.2532 3.84225 46.3181 4.02611 47.3032 4.71686C47.7573 5.03536 48.0993 5.39366 48.3368 5.80505L48.3362 5.8054ZM62.1964 30.514C62.3017 31.712 61.9294 32.7263 61.0573 33.6159C57.2648 37.4825 45.2308 38.0516 38.5359 37.7756C38.3589 35.7207 37.9182 33.6146 37.2228 31.5116C37.0819 31.0838 36.9213 30.6578 36.7443 30.2412C39.6189 29.3303 55.4012 24.5647 60.6921 27.9796C61.6189 28.5778 62.0967 29.3829 62.196 30.5134L62.1964 30.514ZM17.1901 33.7341C17.4096 33.8857 17.584 34.0721 17.7086 34.2881C18.2422 35.2122 17.8085 36.5548 17.5028 37.2734C17.2591 37.846 17.2995 38.5095 17.6105 39.0482C17.9215 39.5868 18.4769 39.9539 19.0942 40.0285C20.1291 40.1549 21.8828 40.586 22.0031 42.0689C22.0663 42.8374 21.5474 43.4041 20.4631 43.7534C18.7367 44.3086 15.6758 44.1753 12.2223 42.1582C12.203 38.1601 13.6185 35.4423 14.9619 34.2251C15.8066 33.4608 16.5562 33.295 17.1908 33.7338L17.1901 33.7341ZM21.4073 46.69C23.8902 45.8919 25.2625 44.0701 25.0785 41.8166C24.893 39.5631 23.3339 37.8976 20.7816 37.2173C21.467 34.6669 20.8058 32.4839 18.9464 31.1968C17.0873 29.9104 14.8229 30.1883 12.8903 31.9395C10.9937 33.657 9.65948 36.6383 9.27162 39.9868C7.72741 38.591 6.34851 36.8922 5.16869 34.9281L5.10078 34.8105C2.4304 30.1866 5.12738 25.8644 8.248 23.5673C11.1903 21.4029 15.0961 20.4017 18.9646 20.8208C23.5818 21.3207 27.9655 23.7634 31.6415 27.8847C32.2354 28.5512 32.76 29.2746 33.2103 30.0545L33.2158 30.0642L33.2411 30.1107C33.6687 30.8611 34.0227 31.6581 34.2944 32.4784C36.0268 37.7259 35.9506 42.7483 34.0734 47.0026C32.5008 50.5671 29.6798 53.4513 26.3332 54.9169C20.5892 57.433 16.6301 54.8634 14.9582 51.8812C13.8469 49.8784 13.0636 47.8349 12.6275 45.7993C15.7217 47.1383 18.9707 47.4735 21.4075 46.6891L21.4073 46.69Z" fill="#DE7084" fill-opacity="0.6"/>
</svg>
