<svg width="43" height="43" viewBox="0 0 43 43" fill="none" xmlns="http://www.w3.org/2000/svg">
<path d="M42.4653 26.7777V40.5935C42.4653 41.0516 42.2827 41.4908 41.9577 41.8147C41.6327 42.1386 41.1919 42.3205 40.7323 42.3205H2.60606C2.14643 42.3205 1.70564 42.1386 1.38063 41.8147C1.05563 41.4908 0.873047 41.0516 0.873047 40.5935V26.7777C0.873047 26.3197 1.05563 25.8804 1.38063 25.5566C1.70564 25.2327 2.14643 25.0507 2.60606 25.0507C3.06568 25.0507 3.50648 25.2327 3.83148 25.5566C4.15648 25.8804 4.33907 26.3197 4.33907 26.7777V38.8666H38.9993V26.7777C38.9993 26.3197 39.1818 25.8804 39.5068 25.5566C39.8318 25.2327 40.2726 25.0507 40.7323 25.0507C41.1919 25.0507 41.6327 25.2327 41.9577 25.5566C42.2827 25.8804 42.4653 26.3197 42.4653 26.7777ZM20.4431 27.9996C20.604 28.1601 20.7951 28.2875 21.0055 28.3744C21.2159 28.4613 21.4414 28.5061 21.6692 28.5061C21.8969 28.5061 22.1224 28.4613 22.3328 28.3744C22.5432 28.2875 22.7343 28.1601 22.8953 27.9996L31.5603 19.3647C31.803 19.1231 31.9682 18.8153 32.0352 18.4801C32.1022 18.1449 32.0679 17.7975 31.9366 17.4818C31.8053 17.166 31.583 16.8962 31.2977 16.7065C31.0125 16.5167 30.6772 16.4156 30.3342 16.4159H23.4022V2.60003C23.4022 2.142 23.2196 1.70274 22.8946 1.37887C22.5696 1.055 22.1288 0.873047 21.6692 0.873047C21.2095 0.873047 20.7687 1.055 20.4437 1.37887C20.1187 1.70274 19.9362 2.142 19.9362 2.60003V16.4159H13.0041C12.6612 16.4156 12.3258 16.5167 12.0406 16.7065C11.7554 16.8962 11.533 17.166 11.4017 17.4818C11.2705 17.7975 11.2361 18.1449 11.3031 18.4801C11.3701 18.8153 11.5354 19.1231 11.778 19.3647L20.4431 27.9996Z" fill="#DE7084"/>
</svg>
