<svg width="33" height="27" viewBox="0 0 33 27" fill="none" xmlns="http://www.w3.org/2000/svg">
<path fill-rule="evenodd" clip-rule="evenodd" d="M16.798 1.64964C18.5842 -0.125401 21.4574 -0.125401 23.2436 1.64964L31.624 9.97756C33.4615 11.8035 33.4386 14.7949 31.5761 16.5926L24.3576 23.5597H29.2013C30.092 23.5597 30.8139 24.3029 30.8139 25.2198C30.8139 26.1367 30.092 26.8799 29.2013 26.8799H20.2881H20.2799H6.89758C6.48494 26.8799 6.088 26.717 5.78847 26.425L2.1288 22.8558C0.282106 21.0549 0.26743 18.0766 2.09801 16.2574L11.5355 6.87904C11.5396 6.87501 11.5436 6.87099 11.5477 6.86701L16.798 1.64964ZM12.662 10.3744L4.3381 18.6463C3.83053 19.1506 3.83369 19.945 4.34702 20.4455L7.54017 23.5597H8.37599H8.3844H19.6421L22.8424 20.4709L12.662 10.3744Z" fill="#DE7084"/>
</svg>
