<svg width="29" height="26" viewBox="0 0 29 26" fill="none" xmlns="http://www.w3.org/2000/svg">
<path d="M28.6237 1.55544C28.6237 1.28769 28.5174 1.03091 28.328 0.841586C28.1387 0.652261 27.8819 0.545898 27.6142 0.545898C22.0516 0.545898 16.3439 6.81894 13.1739 10.9732C12.0418 10.6265 10.8442 10.5501 9.67719 10.7502C8.5102 10.9503 7.40641 11.4213 6.45446 12.1253C5.50251 12.8294 4.72894 13.7469 4.19589 14.8041C3.66284 15.8613 3.38517 17.0289 3.38517 18.2129C3.38517 22.1097 0.919365 23.8575 0.802006 23.9382C0.622924 24.0592 0.487368 24.2344 0.415271 24.4381C0.343174 24.6418 0.338341 24.8632 0.401482 25.0699C0.464623 25.2766 0.592406 25.4575 0.766041 25.5861C0.939676 25.7147 1.15 25.7843 1.36609 25.7844H10.9567C12.1408 25.7845 13.3083 25.5068 14.3655 24.9737C15.4227 24.4407 16.3402 23.6671 17.0443 22.7152C17.7483 21.7632 18.2193 20.6594 18.4194 19.4924C18.6195 18.3254 18.5431 17.1278 18.1964 15.9957C22.3519 12.8257 28.6237 7.11802 28.6237 1.55544ZM15.0479 11.8465C15.4803 11.2862 15.9048 10.7583 16.3212 10.2627C17.3405 10.9514 18.2182 11.8291 18.9069 12.8484C18.4105 13.264 17.8826 13.6885 17.3232 14.1217C16.7349 13.2104 15.9592 12.4348 15.0479 11.8465ZM20.4363 11.5083C19.6742 10.4328 18.7355 9.49418 17.6601 8.73202C21.6705 4.37459 24.6953 3.05335 26.481 2.68613C26.1213 4.47302 24.7938 7.49786 20.4363 11.5083Z" fill="#DE7084"/>
</svg>
