<svg width="102" height="51" viewBox="0 0 102 51" fill="none" xmlns="http://www.w3.org/2000/svg">
<path d="M52.5414 21.3783C52.5414 35.3983 62.8867 46.7638 75.6482 46.7638C88.4097 46.7638 98.755 35.3983 98.755 21.3783C98.755 14.5525 96.2936 8.15917 91.9872 3.42811C91.3856 2.7672 91.3856 1.69565 91.9872 1.03474C92.5888 0.373835 93.5641 0.373835 94.1657 1.03474C99.0442 6.39428 101.836 13.6456 101.836 21.3783C101.836 37.2676 90.1113 50.1485 75.6482 50.1485C64.2987 50.1485 54.6355 42.2166 51.001 31.1234C47.3664 42.2166 37.7032 50.1485 26.3537 50.1485C11.8906 50.1485 0.166016 37.2676 0.166016 21.3783C0.166016 13.6456 2.95777 6.39428 7.83622 1.03474C8.4378 0.373835 9.41312 0.373835 10.0147 1.03474C10.6163 1.69565 10.6163 2.7672 10.0147 3.42811C5.70831 8.15917 3.24692 14.5525 3.24692 21.3783C3.24692 35.3983 13.5922 46.7638 26.3537 46.7638C39.1152 46.7638 49.4605 35.3983 49.4605 21.3783C49.4605 20.4437 50.1502 19.686 51.001 19.686C51.8517 19.686 52.5414 20.4437 52.5414 21.3783ZM23.2728 32.694C21.9967 32.694 20.9621 31.5574 20.9621 30.1554C20.9621 28.7534 21.9967 27.6169 23.2728 27.6169C24.549 27.6169 25.5835 28.7534 25.5835 30.1554C25.5835 31.5574 24.549 32.694 23.2728 32.694ZM78.7291 32.694C77.453 32.694 76.4184 31.5574 76.4184 30.1554C76.4184 28.7534 77.453 27.6169 78.7291 27.6169C80.0053 27.6169 81.0398 28.7534 81.0398 30.1554C81.0398 31.5574 80.0053 32.694 78.7291 32.694Z" fill="#DE7084"/>
</svg>
