<svg width="34" height="33" viewBox="0 0 34 33" fill="none" xmlns="http://www.w3.org/2000/svg">
<path d="M17.9476 8.39006V15.7042L23.9647 19.3503C24.2678 19.5342 24.4862 19.8321 24.5718 20.1786C24.6574 20.525 24.6032 20.8917 24.4212 21.1978C24.2391 21.5039 23.9442 21.7245 23.6011 21.8109C23.2581 21.8974 22.8951 21.8427 22.592 21.6588L15.9286 17.6206C15.7314 17.501 15.5682 17.3318 15.4549 17.1295C15.3417 16.9272 15.2822 16.6988 15.2822 16.4664V8.39006C15.2822 8.03307 15.4227 7.69069 15.6726 7.43826C15.9225 7.18582 16.2615 7.04401 16.6149 7.04401C16.9684 7.04401 17.3074 7.18582 17.5573 7.43826C17.8072 7.69069 17.9476 8.03307 17.9476 8.39006ZM33.117 4.45453C32.8735 4.35251 32.6055 4.3257 32.3469 4.37752C32.0884 4.42933 31.8508 4.55743 31.6643 4.74562L29.6087 6.82696C29.0706 6.23637 28.5158 5.64916 27.9261 5.04512C25.7036 2.80007 22.8754 1.26633 19.7948 0.63553C16.7142 0.00472885 13.5178 0.304843 10.6052 1.49837C7.69246 2.6919 5.19258 4.72592 3.41787 7.34627C1.64317 9.96662 0.672336 13.0571 0.626687 16.2316C0.581038 19.406 1.4626 22.5237 3.16121 25.195C4.85982 27.8663 7.30016 29.9728 10.1773 31.2512C13.0544 32.5297 16.2408 32.9235 19.3382 32.3833C22.4357 31.8431 25.3068 30.393 27.593 28.2141C27.7203 28.0926 27.8227 27.9469 27.8942 27.7854C27.9658 27.6239 28.0052 27.4498 28.0102 27.2729C28.0151 27.096 27.9855 26.9199 27.9231 26.7546C27.8607 26.5893 27.7666 26.438 27.6463 26.3094C27.5259 26.1808 27.3817 26.0774 27.2218 26.0051C27.062 25.9328 26.8895 25.893 26.7144 25.888C26.5393 25.883 26.365 25.9129 26.2013 25.976C26.0376 26.039 25.8878 26.1341 25.7605 26.2556C23.8556 28.0711 21.4632 29.2794 18.8824 29.7296C16.3015 30.1797 13.6465 29.8519 11.249 28.7868C8.85156 27.7218 6.81795 25.9669 5.40223 23.7413C3.98651 21.5157 3.25144 18.9181 3.28886 16.273C3.32628 13.628 4.13452 11.0526 5.61262 8.86882C7.09071 6.68499 9.17314 4.98947 11.5997 3.99408C14.0263 2.99868 16.6895 2.74753 19.2566 3.27201C21.8237 3.79649 24.1809 5.07334 26.0337 6.94305C26.6234 7.54541 27.1782 8.13768 27.7179 8.73162L25.0009 11.4759C24.8143 11.6641 24.6872 11.9041 24.6357 12.1653C24.5842 12.4266 24.6106 12.6974 24.7115 12.9435C24.8125 13.1896 24.9835 13.3999 25.2028 13.5478C25.4222 13.6957 25.68 13.7745 25.9438 13.7743H32.6072C32.9607 13.7743 33.2996 13.6325 33.5496 13.38C33.7995 13.1276 33.9399 12.7852 33.9399 12.4282V5.69795C33.9398 5.43173 33.8616 5.1715 33.7151 4.95017C33.5687 4.72885 33.3605 4.55636 33.117 4.45453Z" fill="#DE7084"/>
</svg>
