<svg width="32" height="33" viewBox="0 0 32 33" fill="none" xmlns="http://www.w3.org/2000/svg">
<g clip-path="url(#clip0_296_1348)">
<path d="M31.0009 19.291C31.0009 19.5562 30.8956 19.8106 30.7081 19.9981C30.5205 20.1857 30.2662 20.291 30.0009 20.291H28.0009V22.291C28.0009 22.5562 27.8956 22.8106 27.7081 22.9981C27.5205 23.1857 27.2662 23.291 27.0009 23.291C26.7357 23.291 26.4814 23.1857 26.2938 22.9981C26.1063 22.8106 26.0009 22.5562 26.0009 22.291V20.291H24.0009C23.7357 20.291 23.4814 20.1857 23.2938 19.9981C23.1063 19.8106 23.0009 19.5562 23.0009 19.291C23.0009 19.0258 23.1063 18.7714 23.2938 18.5839C23.4814 18.3964 23.7357 18.291 24.0009 18.291H26.0009V16.291C26.0009 16.0258 26.1063 15.7714 26.2938 15.5839C26.4814 15.3964 26.7357 15.291 27.0009 15.291C27.2662 15.291 27.5205 15.3964 27.7081 15.5839C27.8956 15.7714 28.0009 16.0258 28.0009 16.291V18.291H30.0009C30.2662 18.291 30.5205 18.3964 30.7081 18.5839C30.8956 18.7714 31.0009 19.0258 31.0009 19.291ZM7.00095 9.29102H9.00095V11.291C9.00095 11.5562 9.10631 11.8106 9.29384 11.9981C9.48138 12.1857 9.73573 12.291 10.0009 12.291C10.2662 12.291 10.5205 12.1857 10.7081 11.9981C10.8956 11.8106 11.0009 11.5562 11.0009 11.291V9.29102H13.0009C13.2662 9.29102 13.5205 9.18566 13.7081 8.99812C13.8956 8.81059 14.0009 8.55623 14.0009 8.29102C14.0009 8.0258 13.8956 7.77145 13.7081 7.58391C13.5205 7.39637 13.2662 7.29102 13.0009 7.29102H11.0009V5.29102C11.0009 5.0258 10.8956 4.77145 10.7081 4.58391C10.5205 4.39637 10.2662 4.29102 10.0009 4.29102C9.73573 4.29102 9.48138 4.39637 9.29384 4.58391C9.10631 4.77145 9.00095 5.0258 9.00095 5.29102V7.29102H7.00095C6.73573 7.29102 6.48138 7.39637 6.29384 7.58391C6.1063 7.77145 6.00095 8.0258 6.00095 8.29102C6.00095 8.55623 6.1063 8.81059 6.29384 8.99812C6.48138 9.18566 6.73573 9.29102 7.00095 9.29102ZM23.0009 24.291H22.0009V23.291C22.0009 23.0258 21.8956 22.7714 21.7081 22.5839C21.5205 22.3964 21.2662 22.291 21.0009 22.291C20.7357 22.291 20.4814 22.3964 20.2938 22.5839C20.1063 22.7714 20.0009 23.0258 20.0009 23.291V24.291H19.0009C18.7357 24.291 18.4814 24.3964 18.2938 24.5839C18.1063 24.7714 18.0009 25.0258 18.0009 25.291C18.0009 25.5562 18.1063 25.8106 18.2938 25.9981C18.4814 26.1857 18.7357 26.291 19.0009 26.291H20.0009V27.291C20.0009 27.5562 20.1063 27.8106 20.2938 27.9981C20.4814 28.1857 20.7357 28.291 21.0009 28.291C21.2662 28.291 21.5205 28.1857 21.7081 27.9981C21.8956 27.8106 22.0009 27.5562 22.0009 27.291V26.291H23.0009C23.2662 26.291 23.5205 26.1857 23.7081 25.9981C23.8956 25.8106 24.0009 25.5562 24.0009 25.291C24.0009 25.0258 23.8956 24.7714 23.7081 24.5839C23.5205 24.3964 23.2662 24.291 23.0009 24.291ZM27.4147 10.291L10.0009 27.7048C9.62591 28.0796 9.1174 28.2901 8.5872 28.2901C8.05699 28.2901 7.54848 28.0796 7.17345 27.7048L4.58595 25.1198C4.40018 24.934 4.25282 24.7135 4.15228 24.4709C4.05175 24.2282 4 23.9681 4 23.7054C4 23.4427 4.05175 23.1826 4.15228 22.9399C4.25282 22.6972 4.40018 22.4767 4.58595 22.291L22.0009 4.87727C22.1867 4.6915 22.4072 4.54414 22.6499 4.4436C22.8925 4.34306 23.1526 4.29132 23.4153 4.29132C23.678 4.29132 23.9381 4.34306 24.1808 4.4436C24.4235 4.54414 24.644 4.6915 24.8297 4.87727L27.4147 7.46227C27.6005 7.64799 27.7478 7.86849 27.8484 8.11117C27.9489 8.35385 28.0006 8.61396 28.0006 8.87664C28.0006 9.13932 27.9489 9.39943 27.8484 9.64211C27.7478 9.88479 27.6005 10.1053 27.4147 10.291ZM26.0009 8.87727L23.4147 6.29102L19.4147 10.291L22.0009 12.8773L26.0009 8.87727Z" fill="white"/>
</g>
<defs>
<clipPath id="clip0_296_1348">
<rect width="32" height="32" fill="white" transform="translate(0 0.291016)"/>
</clipPath>
</defs>
</svg>
