<svg width="57" height="57" viewBox="0 0 57 57" fill="none" xmlns="http://www.w3.org/2000/svg">
<path opacity="0.4" d="M19.1329 22.5314L18.0131 4.28865L30.7381 17.4085C31.7109 18.4114 33.0733 18.9393 34.4679 18.8537L52.7107 17.734L39.5909 30.459C38.5879 31.4317 38.06 32.7941 38.1456 34.1887L39.2653 52.4315L26.5404 39.3117C25.5676 38.3088 24.2052 37.7808 22.8106 37.8664L4.56779 38.9862L17.6876 26.2612C18.6906 25.2884 19.2185 23.926 19.1329 22.5314ZM54.5554 17.6208C54.5548 17.6208 54.5542 17.6208 54.5536 17.6209L54.5554 17.6208ZM39.3785 54.2763C39.3785 54.2758 39.3785 54.2753 39.3784 54.2749L39.3785 54.2763Z" stroke="#DE7084" stroke-width="5.47125"/>
</svg>
