<svg width="33" height="33" viewBox="0 0 33 33" fill="none" xmlns="http://www.w3.org/2000/svg">
<g clip-path="url(#clip0_545_15530)">
<path d="M31.249 19.5C31.249 19.7652 31.1436 20.0196 30.9561 20.2071C30.7686 20.3946 30.5142 20.5 30.249 20.5H28.249V22.5C28.249 22.7652 28.1436 23.0196 27.9561 23.2071C27.7686 23.3946 27.5142 23.5 27.249 23.5C26.9838 23.5 26.7294 23.3946 26.5419 23.2071C26.3544 23.0196 26.249 22.7652 26.249 22.5V20.5H24.249C23.9838 20.5 23.7294 20.3946 23.5419 20.2071C23.3544 20.0196 23.249 19.7652 23.249 19.5C23.249 19.2348 23.3544 18.9804 23.5419 18.7929C23.7294 18.6054 23.9838 18.5 24.249 18.5H26.249V16.5C26.249 16.2348 26.3544 15.9804 26.5419 15.7929C26.7294 15.6054 26.9838 15.5 27.249 15.5C27.5142 15.5 27.7686 15.6054 27.9561 15.7929C28.1436 15.9804 28.249 16.2348 28.249 16.5V18.5H30.249C30.5142 18.5 30.7686 18.6054 30.9561 18.7929C31.1436 18.9804 31.249 19.2348 31.249 19.5ZM7.24899 9.5H9.24899V11.5C9.24899 11.7652 9.35435 12.0196 9.54189 12.2071C9.72942 12.3946 9.98378 12.5 10.249 12.5C10.5142 12.5 10.7686 12.3946 10.9561 12.2071C11.1436 12.0196 11.249 11.7652 11.249 11.5V9.5H13.249C13.5142 9.5 13.7686 9.39464 13.9561 9.20711C14.1436 9.01957 14.249 8.76522 14.249 8.5C14.249 8.23478 14.1436 7.98043 13.9561 7.79289C13.7686 7.60536 13.5142 7.5 13.249 7.5H11.249V5.5C11.249 5.23478 11.1436 4.98043 10.9561 4.79289C10.7686 4.60536 10.5142 4.5 10.249 4.5C9.98378 4.5 9.72942 4.60536 9.54189 4.79289C9.35435 4.98043 9.24899 5.23478 9.24899 5.5V7.5H7.24899C6.98378 7.5 6.72942 7.60536 6.54189 7.79289C6.35435 7.98043 6.24899 8.23478 6.24899 8.5C6.24899 8.76522 6.35435 9.01957 6.54189 9.20711C6.72942 9.39464 6.98378 9.5 7.24899 9.5ZM23.249 24.5H22.249V23.5C22.249 23.2348 22.1436 22.9804 21.9561 22.7929C21.7686 22.6054 21.5142 22.5 21.249 22.5C20.9838 22.5 20.7294 22.6054 20.5419 22.7929C20.3544 22.9804 20.249 23.2348 20.249 23.5V24.5H19.249C18.9838 24.5 18.7294 24.6054 18.5419 24.7929C18.3544 24.9804 18.249 25.2348 18.249 25.5C18.249 25.7652 18.3544 26.0196 18.5419 26.2071C18.7294 26.3946 18.9838 26.5 19.249 26.5H20.249V27.5C20.249 27.7652 20.3544 28.0196 20.5419 28.2071C20.7294 28.3946 20.9838 28.5 21.249 28.5C21.5142 28.5 21.7686 28.3946 21.9561 28.2071C22.1436 28.0196 22.249 27.7652 22.249 27.5V26.5H23.249C23.5142 26.5 23.7686 26.3946 23.9561 26.2071C24.1436 26.0196 24.249 25.7652 24.249 25.5C24.249 25.2348 24.1436 24.9804 23.9561 24.7929C23.7686 24.6054 23.5142 24.5 23.249 24.5ZM27.6627 10.5L10.249 27.9137C9.87396 28.2885 9.36545 28.4991 8.83525 28.4991C8.30504 28.4991 7.79653 28.2885 7.42149 27.9137L4.83399 25.3288C4.64823 25.143 4.50087 24.9225 4.40033 24.6798C4.29979 24.4372 4.24805 24.1771 4.24805 23.9144C4.24805 23.6517 4.29979 23.3916 4.40033 23.1489C4.50087 22.9062 4.64823 22.6857 4.83399 22.5L22.249 5.08625C22.4347 4.90048 22.6552 4.75312 22.8979 4.65259C23.1406 4.55205 23.4007 4.5003 23.6634 4.5003C23.9261 4.5003 24.1862 4.55205 24.4288 4.65259C24.6715 4.75312 24.892 4.90048 25.0777 5.08625L27.6627 7.67125C27.8485 7.85697 27.9959 8.07747 28.0964 8.32015C28.1969 8.56283 28.2487 8.82294 28.2487 9.08562C28.2487 9.34831 28.1969 9.60842 28.0964 9.8511C27.9959 10.0938 27.8485 10.3143 27.6627 10.5ZM26.249 9.08625L23.6627 6.5L19.6627 10.5L22.249 13.0863L26.249 9.08625Z" fill="white"/>
</g>
<defs>
<clipPath id="clip0_545_15530">
<rect width="32" height="32" fill="white" transform="translate(0.248047 0.5)"/>
</clipPath>
</defs>
</svg>
