<svg width="177" height="195" viewBox="0 0 177 195" fill="none" xmlns="http://www.w3.org/2000/svg">
<path opacity="0.7" d="M143.869 86.3152C136.961 83.267 129.455 81.5392 121.546 81.1736C122.08 66.6737 122.281 22.4411 106.181 6.64894C101.498 2.0536 95.872 0.00827564 89.4602 0.572304C83.2127 1.12177 78.1364 4.15463 74.7863 9.34811C68.5838 18.9592 68.0368 36.4296 73.1586 61.2728C74.1262 65.9713 75.2869 70.8865 76.6208 75.9205C72.9131 72.2643 69.2125 68.8058 65.593 65.614C46.5425 48.8126 31.0768 40.5945 19.6252 41.1857C13.3568 41.5138 8.33172 44.3154 4.68435 49.5201C0.992886 54.7916 -0.0500009 60.685 1.58655 67.0389C7.21216 88.869 45.6082 110.812 58.4267 117.599C54.7854 124.632 52.5267 131.998 51.7145 139.503C50.2001 153.488 53.8664 167.673 61.7757 178.421C73.7325 194.668 92.2885 199.508 107.951 190.465L109.57 189.499L109.559 189.491C118.258 184.082 125.359 177.505 130.684 169.922C140.312 169.069 149.963 165.991 159.375 160.768L159.915 160.461C175.564 151.426 180.646 132.957 172.564 114.501C167.208 102.274 156.749 92.0009 143.868 86.3181L143.869 86.3152ZM15.608 51.7445C16.9114 50.992 18.3948 50.5851 20.103 50.4958C28.8986 50.0405 42.4749 57.6676 59.3647 72.5495C68.0542 80.2077 75.5709 88.0448 79.6108 92.4109C78.3872 93.3142 77.2181 94.2614 76.1261 95.237C71.1439 99.6787 66.816 104.513 63.252 109.614C45.3167 100.221 14.6927 80.5495 10.6127 64.7054C9.6754 61.0612 10.231 57.8432 12.3184 54.8662C13.2809 53.4939 14.3637 52.4604 15.6069 51.7426L15.608 51.7445ZM90.277 9.85926C93.897 9.54107 96.9625 10.666 99.6508 13.3017C111.335 24.7625 113.055 61.1291 112.221 81.3608C106.012 81.8958 99.6468 83.2274 93.2915 85.329C91.9987 85.7546 90.7114 86.2402 89.4525 86.775C86.6998 78.088 72.2982 30.394 82.6181 14.4051C84.4256 11.6043 86.8587 10.1606 90.2752 9.86031L90.277 9.85926ZM100.008 145.867C100.466 145.204 101.029 144.677 101.682 144.3C104.475 142.688 108.532 143.999 110.704 144.922C112.434 145.659 114.439 145.537 116.067 144.597C117.695 143.657 118.804 141.979 119.03 140.113C119.411 136.986 120.714 131.686 125.196 131.323C127.518 131.131 129.23 132.7 130.286 135.976C131.964 141.194 131.561 150.443 125.465 160.88C113.383 160.938 105.17 156.661 101.492 152.601C99.1819 150.048 98.681 147.783 100.007 145.865L100.008 145.867ZM139.16 133.123C136.749 125.62 131.243 121.473 124.433 122.029C117.623 122.589 112.59 127.301 110.534 135.014C102.827 132.943 96.2297 134.941 92.3403 140.56C88.4528 146.178 89.2926 153.021 94.5846 158.861C99.7749 164.593 108.784 168.625 118.903 169.797C114.685 174.463 109.552 178.63 103.616 182.196L103.261 182.401C89.2876 190.471 76.2259 182.321 69.2841 172.89C62.7433 163.999 59.7178 152.195 60.9842 140.505C62.4948 126.552 69.8767 113.304 82.3312 102.196C84.3453 100.401 86.5313 98.8155 88.8883 97.4547L88.9175 97.4379L89.0581 97.3615C91.3258 96.0692 93.7343 94.9996 96.2132 94.1784C112.071 88.9433 127.249 89.1734 140.105 94.8464C150.877 99.5986 159.593 108.124 164.022 118.237C171.625 135.595 163.86 147.56 154.848 152.612C148.796 155.97 142.62 158.338 136.469 159.655C140.515 150.305 141.528 140.486 139.158 133.122L139.16 133.123Z" fill="#DE7084"/>
</svg>
