<svg width="194" height="56" viewBox="0 0 194 56" fill="none" xmlns="http://www.w3.org/2000/svg">
<path d="M36.7495 32.7603C35.3569 30.859 33.5984 29.2201 31.5176 27.8851C33.9252 24.048 40.8835 12.1226 38.996 5.34153C38.4482 3.36891 37.2467 1.93721 35.4237 1.09016C33.649 0.263821 31.803 0.291442 30.0859 1.17302C26.9094 2.80268 24.0345 7.44075 21.5417 14.956C21.0698 16.3785 20.6164 17.8862 20.1905 19.456C19.7578 17.8885 19.2974 16.3762 18.8187 14.9491C16.2913 7.43154 13.3934 2.79577 10.2054 1.16842C8.46069 0.277631 6.66301 0.252312 4.86532 1.09016C3.04462 1.93951 1.84309 3.36891 1.29297 5.34153C-0.592183 12.1203 6.36378 24.0457 8.76913 27.8805C6.68602 29.2132 4.92747 30.8521 3.5372 32.7534C0.943099 36.2981 -0.279142 40.7037 0.181213 44.8446C0.87865 51.1031 5.13923 55.3061 10.7832 55.3061L11.3724 55.2969V55.2923C14.5673 55.1887 17.5136 54.5189 20.1353 53.299C22.8721 54.5719 25.9611 55.244 29.3194 55.3015H29.5127C35.1521 55.3015 39.4103 51.1031 40.1055 44.8538C40.5658 40.7129 39.3413 36.3027 36.7472 32.7557L36.7495 32.7603ZM7.47093 3.39653C7.94049 3.39653 8.40545 3.51853 8.88192 3.76021C11.331 5.01008 13.81 9.1901 16.0542 15.8491C17.2074 19.2765 18.0177 22.568 18.4274 24.3772C17.9555 24.4301 17.4905 24.5038 17.044 24.5982C15.0046 25.0217 13.078 25.6524 11.3195 26.4764C7.93589 21.1363 2.72928 11.0407 4.09883 6.12183C4.41417 4.98936 5.06788 4.20676 6.09447 3.72799C6.56863 3.50702 7.02208 3.39653 7.47093 3.39653ZM34.1945 3.72799C35.2234 4.20676 35.8748 4.98936 36.1925 6.12183C37.562 11.043 32.3508 21.1432 28.9695 26.481C27.2063 25.657 25.2797 25.024 23.2335 24.5982C22.8169 24.5107 22.3933 24.4417 21.9698 24.391C22.5821 21.6128 26.1314 6.4717 31.4163 3.76021C32.3416 3.28605 33.2255 3.27454 34.1945 3.72569V3.72799ZM15.5985 42.0134C15.8264 41.9052 16.0611 41.85 16.2959 41.85C17.3018 41.85 18.1949 42.8374 18.6368 43.4267C18.989 43.8962 19.5506 44.1771 20.1376 44.1771C20.7245 44.1771 21.2862 43.8962 21.6383 43.4267C22.2299 42.6395 23.4084 41.4126 24.6767 42.0134C25.335 42.3241 25.5514 43.0147 25.3258 44.0666C24.9644 45.7377 23.413 48.1775 20.1353 50.0466C16.8599 48.1775 15.3062 45.7377 14.9471 44.0666C14.7215 43.0147 14.9402 42.3241 15.5962 42.0134H15.5985ZM28.1708 44.6788C28.6887 42.2735 27.8485 40.294 25.9219 39.3825C23.9931 38.471 21.8984 38.9589 20.1376 40.7244C18.3767 38.9612 16.2821 38.471 14.3532 39.3848C12.4266 40.2963 11.5842 42.2781 12.1044 44.6811C12.6131 47.0405 14.42 49.5379 16.9727 51.4322C15.1036 52.0353 13.0665 52.3599 10.9052 52.3967H10.7763C5.74 52.3967 3.47965 48.1545 3.07684 44.5223C2.69705 41.0973 3.72134 37.4352 5.88731 34.4728C8.4745 30.9373 12.5371 28.5066 17.6379 27.4478C18.4619 27.2774 19.2997 27.19 20.1514 27.19H20.2112C21.0261 27.1969 21.8432 27.282 22.6419 27.4478C27.7449 28.5066 31.8122 30.9373 34.404 34.4774C36.5746 37.4444 37.5988 41.1088 37.2191 44.5338C36.5653 50.4126 32.5994 52.4358 29.3746 52.3944C27.2132 52.3576 25.1762 52.033 23.3071 51.4299C25.8598 49.5333 27.6667 47.0382 28.1754 44.6765L28.1708 44.6788Z" fill="#DE7084"/>
<path d="M20.1403 29.2539C17.7465 29.2539 15.7969 31.2012 15.7969 33.5974C15.7969 35.9935 17.7442 37.9408 20.1403 37.9408C22.5365 37.9408 24.4838 35.9935 24.4838 33.5974C24.4838 31.2012 22.5365 29.2539 20.1403 29.2539ZM21.572 33.5974C21.572 34.3869 20.9298 35.0291 20.1403 35.0291C19.3508 35.0291 18.7086 34.3869 18.7086 33.5974C18.7086 32.8078 19.3508 32.1656 20.1403 32.1656C20.9298 32.1656 21.572 32.8078 21.572 33.5974Z" fill="#DE7084"/>
<path d="M73.8405 32.3518V22.374H78.0843V37.4736H73.8405L63.7397 27.475V37.4736H59.5156V22.374H63.7397L73.8405 32.3518ZM63.7408 37.4736H59.5167V22.374L63.7408 37.4736Z" fill="white"/>
<path d="M93.7714 22.374H98.0977V30.2298C98.0977 31.699 97.7032 33.0188 96.9142 34.188C96.1252 35.3583 95.0571 36.2692 93.711 36.9219C92.3638 37.5747 90.8682 37.901 89.2221 37.901C87.576 37.901 85.9639 37.5747 84.5497 36.9219C83.1344 36.2692 82.0124 35.3616 81.1828 34.1979C80.3531 33.0352 79.9312 31.7188 79.918 30.2496V22.374H84.3047V30.3112C84.3047 31.2902 84.5662 32.0836 85.0903 32.688C85.6134 33.2935 86.2497 33.7253 86.998 33.9836C87.7463 34.2418 88.4946 34.3715 89.243 34.3715C89.91 34.3715 90.5902 34.2418 91.2836 33.9836C91.977 33.7253 92.5659 33.2935 93.0484 32.688C93.5308 32.0825 93.7725 31.2902 93.7725 30.3112V22.374H93.7714Z" fill="white"/>
<path d="M115.54 33.8012C114.812 34.944 113.775 35.8418 112.428 36.4945C111.08 37.1472 109.523 37.4736 107.755 37.4736V37.4945H103.409V37.4736H99.9609V22.374H107.735C109.517 22.374 111.081 22.7004 112.429 23.3531C113.776 24.0058 114.812 24.9036 115.541 26.0464C116.268 27.1893 116.632 28.4881 116.632 29.9441C116.632 31.4001 116.268 32.6583 115.541 33.8001L115.54 33.8012ZM107.939 33.944C109.244 33.944 110.322 33.6045 111.173 32.9243C112.022 32.2441 112.447 31.2507 112.447 29.9452C112.447 29.2112 112.243 28.5343 111.835 27.9145C111.428 27.2959 110.879 26.8058 110.193 26.4453C109.506 26.0849 108.754 25.9047 107.938 25.9047H104.183V33.944H107.938H107.939Z" fill="white"/>
<path d="M132.26 31.3111H122.384V34.3308L133.974 34.2495V37.4736H118.16V22.374H133.974L133.995 25.5772H122.384V28.1486H132.26V31.3111Z" fill="white"/>
<path d="M139.849 27.8629H148.827V22.374H153.071V37.4736H148.827V31.3111H139.849V37.4736H135.625V22.374H139.849V27.8629Z" fill="#DE7084"/>
<path d="M168.76 22.374H173.086V30.2298C173.086 31.699 172.691 33.0188 171.902 34.188C171.113 35.3583 170.045 36.2692 168.699 36.9219C167.352 37.5747 165.856 37.901 164.21 37.901C162.564 37.901 160.952 37.5747 159.538 36.9219C158.123 36.2692 157.001 35.3616 156.171 34.1979C155.341 33.0341 154.919 31.7188 154.906 30.2496V22.374H159.293V30.3112C159.293 31.2902 159.554 32.0836 160.079 32.688C160.602 33.2935 161.238 33.7253 161.986 33.9836C162.735 34.2418 163.483 34.3715 164.231 34.3715C164.898 34.3715 165.578 34.2418 166.272 33.9836C166.965 33.7253 167.554 33.2935 168.037 32.688C168.519 32.0825 168.761 31.2902 168.761 30.3112V22.374H168.76Z" fill="#DE7084"/>
<path d="M192.82 30.7507C193.404 31.3155 193.696 32.121 193.696 33.1682V33.2495C193.696 34.3649 193.398 35.2286 192.799 35.8407C192.2 36.4527 191.37 36.878 190.31 37.1165C189.248 37.3549 187.915 37.4802 186.311 37.4934H185.454L174.945 37.4725V22.374H187.249C188.827 22.3872 190.086 22.7136 191.024 23.3531C191.962 23.9927 192.432 24.897 192.432 26.0673V26.1486C192.432 27.0332 192.248 27.7541 191.881 28.3112C191.514 28.8694 190.962 29.2837 190.228 29.5562C191.371 29.7881 192.235 30.1859 192.82 30.7496V30.7507ZM187.943 25.6498C187.711 25.4256 187.409 25.286 187.035 25.2311C186.66 25.1772 186.127 25.1498 185.433 25.1498H178.965V28.3332L183.862 28.3738H185.433C186.167 28.3738 186.704 28.353 187.045 28.3123C187.385 28.2717 187.678 28.1354 187.922 27.9046C188.167 27.6739 188.289 27.286 188.289 26.742C188.289 26.2387 188.174 25.875 187.942 25.6509L187.943 25.6498ZM187.963 34.3825C188.37 34.3209 188.697 34.1616 188.942 33.9034C189.187 33.6451 189.309 33.2297 189.309 32.6583C189.309 32.0869 189.187 31.6957 188.942 31.4441C188.697 31.1924 188.37 31.0397 187.963 30.9848C187.555 30.9298 186.935 30.9034 186.105 30.9034H178.964V34.433C181.915 34.433 184.018 34.4462 185.269 34.4737H186.105C186.935 34.4737 187.554 34.4429 187.963 34.3814V34.3825Z" fill="#DE7084"/>
</svg>
