<svg width="14" height="11" viewBox="0 0 14 11" fill="none" xmlns="http://www.w3.org/2000/svg">
<path d="M10.0172 8.39227C8.68178 9.56178 7.31618 10.3288 7.08984 10.4519C6.86351 10.3288 5.49791 9.56178 4.16248 8.39227C2.72792 7.13595 1.46498 5.53379 1.46484 3.85379C1.46578 3.08737 1.77066 2.3526 2.31261 1.81065C2.85456 1.26871 3.58932 0.963831 4.35574 0.962891C5.33881 0.962969 6.17467 1.38324 6.69 2.06959L7.08984 2.60212L7.48968 2.06959C8.00502 1.38324 8.84088 0.962968 9.82395 0.962891C10.5904 0.963831 11.3251 1.26871 11.8671 1.81065C12.4091 2.35267 12.714 3.08755 12.7148 3.85408C12.7146 5.53397 11.4517 7.13602 10.0172 8.39227Z" fill="#FFA8B8" stroke="white"/>
</svg>
