<svg width="14" height="11" viewBox="0 0 14 11" fill="none" xmlns="http://www.w3.org/2000/svg">
<path d="M10.0172 7.95575C8.68178 9.12526 7.31618 9.89228 7.08984 10.0154C6.86351 9.89228 5.49791 9.12526 4.16248 7.95575C2.72792 6.69942 1.46498 5.09726 1.46484 3.41727C1.46578 2.65085 1.77066 1.91608 2.31261 1.37413C2.85456 0.832183 3.58932 0.527307 4.35574 0.526367C5.33881 0.526446 6.17467 0.946718 6.69 1.63306L7.08984 2.16559L7.48968 1.63306C8.00502 0.946717 8.84088 0.526445 9.82395 0.526367C10.5904 0.527307 11.3251 0.832183 11.8671 1.37413C12.4091 1.91615 12.714 2.65103 12.7148 3.41756C12.7146 5.09745 11.4517 6.6995 10.0172 7.95575Z" fill="#FF0065" stroke="#FF0065"/>
</svg>
